<?xml version="1.0" encoding="utf-8"?>
<!-- Generator: Adobe Illustrator 23.0.3, SVG Export Plug-In . SVG Version: 6.00 Build 0)  -->
<svg version="1.1" xmlns="http://www.w3.org/2000/svg" xmlns:xlink="http://www.w3.org/1999/xlink" x="0px" y="0px"
	 viewBox="0 0 140 75" style="enable-background:new 0 0 140 75;" xml:space="preserve">
<style type="text/css">
	.st0{display:none;}
	.st1{display:inline;}
	.st2{fill:none;stroke:#FFFFFF;stroke-width:2;}
	.st3{fill:none;stroke:#E87722;stroke-width:2;}
	.st4{fill:none;stroke:#63A2BC;stroke-width:2;}
	.st5{fill:none;stroke:#FFFFFF;stroke-width:2;stroke-linejoin:round;}
	.st6{fill:none;stroke:#E87722;stroke-width:2;stroke-linejoin:round;}
	.st7{fill:none;stroke:#00B5E3;stroke-width:2;}
	.st8{fill:none;stroke:#00B5E2;stroke-width:2;}
</style>
<g id="Background" class="st0">
	<rect class="st1" width="140" height="75"/>
</g>
<g id="Ironmaking" class="st0">
	<g class="st1">
		<polyline class="st2" points="63.1,5 63.1,13.63 59.21,52.33 64.09,64.67 67.55,64.67 72.43,64.67 75.89,64.67 80.77,52.33 
			76.88,13.63 76.88,5 		"/>
		<g>
			<polyline class="st2" points="87.37,63.14 82.87,63.14 84.48,58.38 87.37,58.38 			"/>
			<g>
				<path class="st2" d="M89.05,63.64c-1.47,0-2.66-1.29-2.66-2.88s1.19-2.88,2.66-2.88c1.47,0,2.66,1.29,2.66,2.88
					S90.52,63.64,89.05,63.64z"/>
			</g>
			<polyline class="st2" points="52.63,63.14 57.11,63.14 55.49,58.38 52.63,58.38 			"/>
			<g>
				<path class="st2" d="M50.95,63.64c1.47,0,2.66-1.29,2.66-2.88s-1.19-2.88-2.66-2.88c-1.47,0-2.66,1.29-2.66,2.88
					S49.48,63.64,50.95,63.64z"/>
			</g>
			<polyline class="st2" points="75.91,5.02 78.71,5.02 78.71,12.06 85.4,51.7 81.23,64.75 81.23,70 73.19,70 66.79,70 58.75,70 
				58.75,64.75 54.58,51.7 61.27,12.06 61.27,5.02 64.07,5.02 			"/>
		</g>
	</g>
</g>
<g id="Ironmaking_x5F_Mouseover" class="st0">
	<g class="st1">
		<polyline class="st3" points="63.1,5 63.1,13.63 59.21,52.33 64.09,64.67 67.55,64.67 72.43,64.67 75.89,64.67 80.77,52.33 
			76.88,13.63 76.88,5 		"/>
		<g>
			<polyline class="st4" points="87.37,63.14 82.87,63.14 84.48,58.38 87.37,58.38 			"/>
			<g>
				<path class="st4" d="M89.05,63.64c-1.47,0-2.66-1.29-2.66-2.88s1.19-2.88,2.66-2.88c1.47,0,2.66,1.29,2.66,2.88
					S90.52,63.64,89.05,63.64z"/>
			</g>
			<polyline class="st4" points="52.63,63.14 57.11,63.14 55.49,58.38 52.63,58.38 			"/>
			<g>
				<path class="st4" d="M50.95,63.64c1.47,0,2.66-1.29,2.66-2.88s-1.19-2.88-2.66-2.88c-1.47,0-2.66,1.29-2.66,2.88
					S49.48,63.64,50.95,63.64z"/>
			</g>
			<polyline class="st4" points="75.91,5.02 78.71,5.02 78.71,12.06 85.4,51.7 81.23,64.75 81.23,70 73.19,70 66.79,70 58.75,70 
				58.75,64.75 54.58,51.7 61.27,12.06 61.27,5.02 64.07,5.02 			"/>
		</g>
	</g>
</g>
<g id="Steelmaking" class="st0">
	<g class="st1">
		<path class="st5" d="M78.71,11.45l10.34,18.69l-0.04,25l-2.49,4.56c-8.23,4.54-15.65,4.37-16.51,4.34v0c0,0-0.03,0-0.04,0
			c-0.01,0-0.04,0-0.04,0v0c-0.86,0.03-8.28,0.2-16.51-4.34l-2.49-4.56v-25l9.43-18.78"/>
		<path class="st2" d="M77.82,11.85h5.08L94.08,31.3v3h0l-0.03,22.82l-4.17,7.85c0,0-8.67,5.01-19.85,5.03v0c-0.01,0-0.03,0-0.04,0
			c-0.01,0-0.03,0-0.04,0v0c-11.18-0.03-19.85-5.03-19.85-5.03l-4.17-7.85V31.3l10.4-19.57h5.07"/>
		<rect x="68.48" y="5" class="st2" width="3.04" height="35.87"/>
	</g>
</g>
<g id="Steelmaking_x5F_Mouseover" class="st0">
	<g class="st1">
		<path class="st6" d="M78.71,11.45l10.34,18.69l-0.04,25l-2.49,4.56c-8.23,4.54-15.65,4.37-16.51,4.34v0c0,0-0.03,0-0.04,0
			c-0.01,0-0.04,0-0.04,0v0c-0.86,0.03-8.28,0.2-16.51-4.34l-2.49-4.56v-25l9.43-18.78"/>
		<path class="st4" d="M77.82,11.85h5.08L94.08,31.3v3h0l-0.03,22.82l-4.17,7.85c0,0-8.67,5.01-19.85,5.03v0c-0.01,0-0.03,0-0.04,0
			c-0.01,0-0.03,0-0.04,0v0c-11.18-0.03-19.85-5.03-19.85-5.03l-4.17-7.85V31.3l10.4-19.57h5.07"/>
		<rect x="68.48" y="5" class="st4" width="3.04" height="35.87"/>
	</g>
</g>
<g id="Continous_Casting" class="st0">
	<g class="st1">
		<path class="st2" d="M117.52,49.36h-58c-4.77,0-29.96-1.65-28.61-32.21"/>
		<path class="st2" d="M70,44.43c0,1.39-1.13,2.52-2.52,2.52c-1.39,0-2.52-1.13-2.52-2.52c0-1.39,1.13-2.52,2.52-2.52
			C68.87,41.91,70,43.04,70,44.43z"/>
		<path class="st2" d="M69.83,55.34c0,1.39-1.13,2.52-2.51,2.52c-1.39,0-2.52-1.13-2.52-2.52c0-1.39,1.13-2.52,2.52-2.52
			C68.7,52.82,69.83,53.95,69.83,55.34z"/>
		<path class="st2" d="M87.18,55.34c0,1.39-1.13,2.52-2.51,2.52c-1.39,0-2.52-1.13-2.52-2.52c0-1.39,1.13-2.52,2.52-2.52
			C86.05,52.82,87.18,53.95,87.18,55.34z"/>
		<path class="st2" d="M104.7,55.34c0,1.39-1.13,2.52-2.51,2.52c-1.39,0-2.52-1.13-2.52-2.52c0-1.39,1.13-2.52,2.52-2.52
			C103.57,52.82,104.7,53.95,104.7,55.34z"/>
		<path class="st2" d="M24.99,18.79c1.39,0,2.52,1.13,2.52,2.51c0,1.39-1.13,2.52-2.52,2.52c-1.39,0-2.52-1.13-2.52-2.52
			C22.48,19.91,23.61,18.79,24.99,18.79z"/>
		<path class="st2" d="M36.49,18.79c1.39,0,2.52,1.13,2.52,2.51c0,1.39-1.13,2.52-2.52,2.52c-1.39,0-2.51-1.13-2.51-2.52
			C33.98,19.91,35.11,18.79,36.49,18.79z"/>
		<path class="st2" d="M52.74,43.97c-0.8,1.14-2.37,1.41-3.5,0.62c-1.14-0.8-1.42-2.37-0.62-3.5c0.8-1.14,2.37-1.41,3.5-0.62
			C53.26,41.27,53.54,42.84,52.74,43.97z"/>
		<path class="st2" d="M48.32,53.54c-0.8,1.14-2.37,1.41-3.5,0.62c-1.14-0.8-1.42-2.37-0.62-3.5c0.8-1.14,2.37-1.41,3.5-0.62
			C48.83,50.83,49.11,52.4,48.32,53.54z"/>
		<path class="st2" d="M32.59,41.89c-1.18,0.74-2.73,0.38-3.47-0.8c-0.74-1.18-0.38-2.73,0.8-3.47c1.18-0.74,2.73-0.38,3.47,0.8
			C34.13,39.6,33.77,41.16,32.59,41.89z"/>
		<path class="st2" d="M40.84,35.86c-1.18,0.74-2.73,0.38-3.47-0.8c-0.74-1.18-0.38-2.73,0.8-3.47c1.18-0.74,2.73-0.38,3.47,0.8
			C42.38,33.57,42.02,35.13,40.84,35.86z"/>
	</g>
</g>
<g id="Continous_Casting_x5F_Mouseover" class="st0">
	<g class="st1">
		<path class="st3" d="M117.52,49.36h-58c-4.77,0-29.96-1.65-28.61-32.21"/>
		<path class="st4" d="M70,44.43c0,1.39-1.13,2.52-2.52,2.52c-1.39,0-2.52-1.13-2.52-2.52c0-1.39,1.13-2.52,2.52-2.52
			C68.87,41.91,70,43.04,70,44.43z"/>
		<path class="st4" d="M69.83,55.34c0,1.39-1.13,2.52-2.51,2.52c-1.39,0-2.52-1.13-2.52-2.52c0-1.39,1.13-2.52,2.52-2.52
			C68.7,52.82,69.83,53.95,69.83,55.34z"/>
		<path class="st4" d="M87.18,55.34c0,1.39-1.13,2.52-2.51,2.52c-1.39,0-2.52-1.13-2.52-2.52c0-1.39,1.13-2.52,2.52-2.52
			C86.05,52.82,87.18,53.95,87.18,55.34z"/>
		<path class="st4" d="M104.7,55.34c0,1.39-1.13,2.52-2.51,2.52c-1.39,0-2.52-1.13-2.52-2.52c0-1.39,1.13-2.52,2.52-2.52
			C103.57,52.82,104.7,53.95,104.7,55.34z"/>
		<path class="st4" d="M24.99,18.79c1.39,0,2.52,1.13,2.52,2.51c0,1.39-1.13,2.52-2.52,2.52c-1.39,0-2.52-1.13-2.52-2.52
			C22.48,19.91,23.61,18.79,24.99,18.79z"/>
		<path class="st4" d="M36.49,18.79c1.39,0,2.52,1.13,2.52,2.51c0,1.39-1.13,2.52-2.52,2.52c-1.39,0-2.51-1.13-2.51-2.52
			C33.98,19.91,35.11,18.79,36.49,18.79z"/>
		<path class="st4" d="M52.74,43.97c-0.8,1.14-2.37,1.41-3.5,0.62c-1.14-0.8-1.42-2.37-0.62-3.5c0.8-1.14,2.37-1.41,3.5-0.62
			C53.26,41.27,53.54,42.84,52.74,43.97z"/>
		<path class="st4" d="M48.32,53.54c-0.8,1.14-2.37,1.41-3.5,0.62c-1.14-0.8-1.42-2.37-0.62-3.5c0.8-1.14,2.37-1.41,3.5-0.62
			C48.83,50.83,49.11,52.4,48.32,53.54z"/>
		<path class="st4" d="M32.59,41.89c-1.18,0.74-2.73,0.38-3.47-0.8c-0.74-1.18-0.38-2.73,0.8-3.47c1.18-0.74,2.73-0.38,3.47,0.8
			C34.13,39.6,33.77,41.16,32.59,41.89z"/>
		<path class="st4" d="M40.84,35.86c-1.18,0.74-2.73,0.38-3.47-0.8c-0.74-1.18-0.38-2.73,0.8-3.47c1.18-0.74,2.73-0.38,3.47,0.8
			C42.38,33.57,42.02,35.13,40.84,35.86z"/>
	</g>
</g>
<g id="Hot_Rolling_Long" class="st0">
	<g class="st1">
		<path class="st2" d="M94.47,15.81c0,2.38-10.96,4.31-24.47,4.31c-13.51,0-24.47-1.93-24.47-4.31c0-2.38,10.96-4.31,24.47-4.31
			C83.51,11.5,94.47,13.43,94.47,15.81z"/>
		<path class="st2" d="M94.47,21.13c0,2.38-10.96,4.31-24.47,4.31c-13.51,0-24.47-1.93-24.47-4.31"/>
		<path class="st2" d="M94.47,26.56c0,2.38-10.96,4.31-24.47,4.31c-13.51,0-24.47-1.93-24.47-4.31"/>
		<path class="st2" d="M94.47,32c0,2.38-10.96,4.31-24.47,4.31c-13.51,0-24.47-1.93-24.47-4.31"/>
		<path class="st2" d="M94.47,37.44c0,2.38-10.96,4.31-24.47,4.31c-13.51,0-24.47-1.93-24.47-4.31"/>
		<path class="st2" d="M94.47,42.88c0,2.38-10.96,4.31-24.47,4.31c-13.51,0-24.47-1.93-24.47-4.31"/>
		<path class="st2" d="M94.47,48.31c0,2.38-10.96,4.31-24.47,4.31c-13.51,0-24.47-1.93-24.47-4.31"/>
		<path class="st2" d="M94.47,53.75c0,2.38-10.96,4.31-24.47,4.31c-13.51,0-24.47-1.93-24.47-4.31"/>
		<path class="st2" d="M94.47,59.19c0,2.38-10.96,4.31-24.47,4.31c-13.51,0-24.47-1.93-24.47-4.31"/>
	</g>
</g>
<g id="Hot_Rolling_Long_x5F_Mouseover" class="st0">
	<g class="st1">
		<path class="st3" d="M94.47,15.81c0,2.38-10.96,4.31-24.47,4.31c-13.51,0-24.47-1.93-24.47-4.31c0-2.38,10.96-4.31,24.47-4.31
			C83.51,11.5,94.47,13.43,94.47,15.81z"/>
		<path class="st3" d="M94.47,21.13c0,2.38-10.96,4.31-24.47,4.31c-13.51,0-24.47-1.93-24.47-4.31"/>
		<path class="st3" d="M94.47,26.56c0,2.38-10.96,4.31-24.47,4.31c-13.51,0-24.47-1.93-24.47-4.31"/>
		<path class="st3" d="M94.47,32c0,2.38-10.96,4.31-24.47,4.31c-13.51,0-24.47-1.93-24.47-4.31"/>
		<path class="st3" d="M94.47,37.44c0,2.38-10.96,4.31-24.47,4.31c-13.51,0-24.47-1.93-24.47-4.31"/>
		<path class="st3" d="M94.47,42.88c0,2.38-10.96,4.31-24.47,4.31c-13.51,0-24.47-1.93-24.47-4.31"/>
		<path class="st3" d="M94.47,48.31c0,2.38-10.96,4.31-24.47,4.31c-13.51,0-24.47-1.93-24.47-4.31"/>
		<path class="st3" d="M94.47,53.75c0,2.38-10.96,4.31-24.47,4.31c-13.51,0-24.47-1.93-24.47-4.31"/>
		<path class="st3" d="M94.47,59.19c0,2.38-10.96,4.31-24.47,4.31c-13.51,0-24.47-1.93-24.47-4.31"/>
	</g>
</g>
<g id="Hot_Rolling_Flat" class="st0">
	<g class="st1">
		<path class="st2" d="M70.02,42.63c-2.96,0-5.37-2.3-5.37-5.14c0-2.83,2.41-5.13,5.37-5.13c2.96,0,5.37,2.3,5.37,5.13
			C75.39,40.33,72.98,42.63,70.02,42.63z"/>
		<path class="st2" d="M80.96,36.18c-0.68-5.21-5.32-9.26-10.94-9.26c-6.08,0-11.03,4.75-11.03,10.59s4.95,10.59,11.03,10.59
			c5.62,0,10.25-4.05,10.94-9.26"/>
		<path class="st2" d="M86.65,36.16c-0.71-8.22-7.9-14.7-16.63-14.7c-9.21,0-16.7,7.2-16.7,16.04c0,8.84,7.49,16.04,16.7,16.04
			c8.74,0,15.92-6.48,16.63-14.7"/>
		<path class="st2" d="M92.33,36.15C91.6,24.93,81.88,16.01,70.02,16.01c-12.33,0-22.36,9.64-22.36,21.49s10.03,21.49,22.36,21.49
			c11.86,0,21.58-8.92,22.31-20.15"/>
		<path class="st2" d="M98,36.15c-0.73-14.23-13-25.6-27.98-25.6C54.57,10.55,42,22.64,42,37.5s12.57,26.95,28.02,26.95
			C85,64.45,97.27,53.08,98,38.85"/>
	</g>
</g>
<g id="Hot_Rolling_Flat_x5F_Mouseover" class="st0">
	<g class="st1">
		<path class="st3" d="M70.02,42.63c-2.96,0-5.37-2.3-5.37-5.14c0-2.83,2.41-5.13,5.37-5.13c2.96,0,5.37,2.3,5.37,5.13
			C75.39,40.33,72.98,42.63,70.02,42.63z"/>
		<path class="st3" d="M80.96,36.18c-0.68-5.21-5.32-9.26-10.94-9.26c-6.08,0-11.03,4.75-11.03,10.59s4.95,10.59,11.03,10.59
			c5.62,0,10.25-4.05,10.94-9.26"/>
		<path class="st3" d="M86.65,36.16c-0.71-8.22-7.9-14.7-16.63-14.7c-9.21,0-16.7,7.2-16.7,16.04c0,8.84,7.49,16.04,16.7,16.04
			c8.74,0,15.92-6.48,16.63-14.7"/>
		<path class="st3" d="M92.33,36.15C91.6,24.93,81.88,16.01,70.02,16.01c-12.33,0-22.36,9.64-22.36,21.49s10.03,21.49,22.36,21.49
			c11.86,0,21.58-8.92,22.31-20.15"/>
		<path class="st3" d="M98,36.15c-0.73-14.23-13-25.6-27.98-25.6C54.57,10.55,42,22.64,42,37.5s12.57,26.95,28.02,26.95
			C85,64.45,97.27,53.08,98,38.85"/>
	</g>
</g>
<g id="Cold_Rolling" class="st0">
	<g class="st1">
		<path class="st2" d="M70.02,42.63c-2.96,0-5.37-2.3-5.37-5.14c0-2.83,2.41-5.13,5.37-5.13c2.96,0,5.37,2.3,5.37,5.13
			C75.39,40.33,72.98,42.63,70.02,42.63z"/>
		<path class="st2" d="M80.96,36.18c-0.68-5.21-5.32-9.26-10.94-9.26c-6.08,0-11.03,4.75-11.03,10.59s4.95,10.59,11.03,10.59
			c5.62,0,10.25-4.05,10.94-9.26"/>
		<path class="st2" d="M86.65,36.16c-0.71-8.22-7.9-14.7-16.63-14.7c-9.21,0-16.7,7.2-16.7,16.04c0,8.84,7.49,16.04,16.7,16.04
			c8.74,0,15.92-6.48,16.63-14.7"/>
		<path class="st2" d="M92.33,36.15C91.6,24.93,81.88,16.01,70.02,16.01c-12.33,0-22.36,9.64-22.36,21.49s10.03,21.49,22.36,21.49
			c11.86,0,21.58-8.92,22.31-20.15"/>
		<path class="st2" d="M98,36.15c-0.73-14.23-13-25.6-27.98-25.6C54.57,10.55,42,22.64,42,37.5s12.57,26.95,28.02,26.95
			C85,64.45,97.27,53.08,98,38.85"/>
	</g>
</g>
<g id="Cold_Rolling_x5F_Mouseover">
	<g>
		<path class="st7" d="M70.02,42.63c-2.96,0-5.37-2.3-5.37-5.14c0-2.83,2.41-5.13,5.37-5.13c2.96,0,5.37,2.3,5.37,5.13
			C75.39,40.33,72.98,42.63,70.02,42.63z"/>
		<path class="st7" d="M80.96,36.18c-0.68-5.21-5.32-9.26-10.94-9.26c-6.08,0-11.03,4.75-11.03,10.59s4.95,10.59,11.03,10.59
			c5.62,0,10.25-4.05,10.94-9.26"/>
		<path class="st7" d="M86.65,36.16c-0.71-8.22-7.9-14.7-16.63-14.7c-9.21,0-16.7,7.2-16.7,16.04c0,8.84,7.49,16.04,16.7,16.04
			c8.74,0,15.92-6.48,16.63-14.7"/>
		<path class="st7" d="M92.33,36.15C91.6,24.93,81.88,16.01,70.02,16.01c-12.33,0-22.36,9.64-22.36,21.49s10.03,21.49,22.36,21.49
			c11.86,0,21.58-8.92,22.31-20.15"/>
		<path class="st7" d="M98,36.15c-0.73-14.23-13-25.6-27.98-25.6C54.57,10.55,42,22.64,42,37.5s12.57,26.95,28.02,26.95
			C85,64.45,97.27,53.08,98,38.85"/>
	</g>
</g>
<g id="Non_Ferrous_Rolling" class="st0">
	<g class="st1">
		<path class="st2" d="M67.11,39.62c0-1.75,1.43-3.16,3.19-3.16c1.76,0,3.19,1.42,3.19,3.16c0,1.74-1.43,3.16-3.19,3.16
			C68.54,42.78,67.11,41.36,67.11,39.62z"/>
		<path class="st2" d="M64.24,49.64c0-3.32,2.71-6.01,6.06-6.01c3.34,0,6.06,2.69,6.06,6.01c0,3.32-2.71,6.01-6.06,6.01
			C66.95,55.64,64.24,52.95,64.24,49.64z"/>
		<path class="st2" d="M67.11,29.65c0,1.75,1.43,3.16,3.19,3.16c1.76,0,3.19-1.42,3.19-3.16c0-1.75-1.43-3.16-3.19-3.16
			C68.54,26.49,67.11,27.9,67.11,29.65z"/>
		<path class="st2" d="M64.24,19.63c0,3.32,2.71,6.01,6.06,6.01c3.34,0,6.06-2.69,6.06-6.01c0-3.32-2.71-6.01-6.06-6.01
			C66.95,13.62,64.24,16.31,64.24,19.63z"/>
		<path class="st2" d="M101.14,48.86c0.4,1.03,1.81,0.99,2.57,0.45c1.38-0.99,1.25-2.99,0.21-4.16c-1.53-1.71-4.27-1.49-5.84,0.04
			c-2.1,2.04-1.76,5.45,0.29,7.39c2.58,2.45,6.76,2.01,9.11-0.51c2.84-3.06,2.29-7.92-0.78-10.63c-3.61-3.19-9.27-2.53-12.38,1
			c-3.59,4.08-2.82,10.4,1.27,13.86c4.64,3.93,11.77,3.06,15.64-1.48c4.34-5.09,3.35-12.87-1.75-17.08
			c-2.41-1.99-5.34-2.93-8.28-2.94l-1.59,0H40.39l-1.59,0c-2.94,0.01-5.87,0.96-8.28,2.94c-5.1,4.21-6.09,11.99-1.75,17.09
			c3.87,4.54,11,5.41,15.64,1.48c4.09-3.46,4.86-9.78,1.27-13.86c-3.11-3.53-8.76-4.19-12.38-1c-3.06,2.7-3.62,7.57-0.78,10.63
			c2.35,2.52,6.53,2.96,9.11,0.51c2.05-1.94,2.39-5.35,0.29-7.39c-1.57-1.53-4.3-1.75-5.84-0.04c-1.05,1.17-1.18,3.18,0.21,4.16
			c0.77,0.55,2.17,0.58,2.57-0.45"/>
		<path class="st2" d="M51.16,70V57.16l3.24-4.01V10.33c0-5.9,5.93-5.32,5.93-5.32h19.46c0,0,6.32-0.51,6.32,5.32v42.84l3.32,3.84
			l-0.08,12.91L51.16,70z"/>
	</g>
</g>
<g id="Non_Ferrous_Rolling_x5F_Mouseover" class="st0">
	<g class="st1">
		<path class="st4" d="M67.11,39.62c0-1.75,1.43-3.16,3.19-3.16c1.76,0,3.19,1.42,3.19,3.16c0,1.74-1.43,3.16-3.19,3.16
			C68.54,42.78,67.11,41.36,67.11,39.62z"/>
		<path class="st4" d="M64.24,49.64c0-3.32,2.71-6.01,6.06-6.01c3.34,0,6.06,2.69,6.06,6.01c0,3.32-2.71,6.01-6.06,6.01
			C66.95,55.64,64.24,52.95,64.24,49.64z"/>
		<path class="st4" d="M67.11,29.65c0,1.75,1.43,3.16,3.19,3.16c1.76,0,3.19-1.42,3.19-3.16c0-1.75-1.43-3.16-3.19-3.16
			C68.54,26.49,67.11,27.9,67.11,29.65z"/>
		<path class="st4" d="M64.24,19.63c0,3.32,2.71,6.01,6.06,6.01c3.34,0,6.06-2.69,6.06-6.01c0-3.32-2.71-6.01-6.06-6.01
			C66.95,13.62,64.24,16.31,64.24,19.63z"/>
		<path class="st8" d="M101.14,48.86c0.4,1.03,1.81,0.99,2.57,0.45c1.38-0.99,1.25-2.99,0.21-4.16c-1.53-1.71-4.27-1.49-5.84,0.04
			c-2.1,2.04-1.76,5.45,0.29,7.39c2.58,2.45,6.76,2.01,9.11-0.51c2.84-3.06,2.29-7.92-0.78-10.63c-3.61-3.19-9.27-2.53-12.38,1
			c-3.59,4.08-2.82,10.4,1.27,13.86c4.64,3.93,11.77,3.06,15.64-1.48c4.34-5.09,3.35-12.87-1.75-17.08
			c-2.41-1.99-5.34-2.93-8.28-2.94l-1.59,0H40.39l-1.59,0c-2.94,0.01-5.87,0.96-8.28,2.94c-5.1,4.21-6.09,11.99-1.75,17.09
			c3.87,4.54,11,5.41,15.64,1.48c4.09-3.46,4.86-9.78,1.27-13.86c-3.11-3.53-8.76-4.19-12.38-1c-3.06,2.7-3.62,7.57-0.78,10.63
			c2.35,2.52,6.53,2.96,9.11,0.51c2.05-1.94,2.39-5.35,0.29-7.39c-1.57-1.53-4.3-1.75-5.84-0.04c-1.05,1.17-1.18,3.18,0.21,4.16
			c0.77,0.55,2.17,0.58,2.57-0.45"/>
		<path class="st4" d="M51.16,70V57.16l3.24-4.01V10.33c0-5.9,5.93-5.32,5.93-5.32h19.46c0,0,6.32-0.51,6.32,5.32v42.84l3.32,3.84
			l-0.08,12.91L51.16,70z"/>
	</g>
</g>
<g id="Processing" class="st0">
	<g class="st1">
		<line class="st2" x1="42.27" y1="10" x2="42.27" y2="65"/>
		<line class="st2" x1="75.54" y1="10" x2="75.54" y2="65"/>
		<line class="st2" x1="53.36" y1="10" x2="53.36" y2="65"/>
		<line class="st2" x1="86.64" y1="10" x2="86.64" y2="65"/>
		<line class="st2" x1="64.45" y1="10" x2="64.45" y2="65"/>
		<line class="st2" x1="97.73" y1="10" x2="97.73" y2="65"/>
	</g>
</g>
<g id="Processing_x5F_Mouseover" class="st0">
	<g class="st1">
		<line class="st4" x1="42.27" y1="10" x2="42.27" y2="65"/>
		<line class="st4" x1="75.54" y1="10" x2="75.54" y2="65"/>
		<line class="st4" x1="53.36" y1="10" x2="53.36" y2="65"/>
		<line class="st4" x1="86.64" y1="10" x2="86.64" y2="65"/>
		<line class="st4" x1="64.45" y1="10" x2="64.45" y2="65"/>
		<line class="st4" x1="97.73" y1="10" x2="97.73" y2="65"/>
	</g>
</g>
<g id="Endless_Casting_u_Rolling" class="st0">
	<g class="st1">
		<path class="st2" d="M132.75,43.04H44.3c-4.77,0-29.96-1.64-28.61-32.21"/>
		<path class="st2" d="M54.77,38.11c0,1.39-1.13,2.52-2.51,2.52c-1.39,0-2.52-1.13-2.52-2.52c0-1.39,1.13-2.52,2.52-2.52
			C53.65,35.59,54.77,36.72,54.77,38.11z"/>
		<path class="st2" d="M54.6,49.02c0,1.39-1.13,2.52-2.51,2.52c-1.39,0-2.52-1.13-2.52-2.52c0-1.39,1.13-2.51,2.52-2.51
			C53.48,46.51,54.6,47.63,54.6,49.02z"/>
		<path class="st2" d="M71.95,49.02c0,1.39-1.13,2.52-2.51,2.52c-1.39,0-2.52-1.13-2.52-2.52c0-1.39,1.13-2.51,2.52-2.51
			C70.83,46.51,71.95,47.63,71.95,49.02z"/>
		<path class="st2" d="M89.47,49.02c0,1.39-1.13,2.52-2.52,2.52c-1.39,0-2.52-1.13-2.52-2.52c0-1.39,1.13-2.51,2.52-2.51
			C88.34,46.51,89.47,47.63,89.47,49.02z"/>
		<path class="st2" d="M9.77,12.47c1.39,0,2.52,1.13,2.52,2.52c0,1.39-1.13,2.52-2.52,2.52s-2.52-1.13-2.52-2.52
			C7.25,13.6,8.38,12.47,9.77,12.47z"/>
		<path class="st2" d="M21.26,12.47c1.39,0,2.52,1.13,2.52,2.52c0,1.39-1.13,2.52-2.52,2.52c-1.39,0-2.51-1.13-2.51-2.52
			C18.75,13.6,19.88,12.47,21.26,12.47z"/>
		<path class="st2" d="M37.51,37.65c-0.8,1.14-2.37,1.41-3.5,0.62c-1.14-0.8-1.42-2.37-0.62-3.5c0.79-1.14,2.37-1.41,3.5-0.62
			C38.03,34.95,38.31,36.52,37.51,37.65z"/>
		<path class="st2" d="M33.09,47.22c-0.8,1.14-2.37,1.41-3.5,0.62c-1.14-0.8-1.42-2.37-0.62-3.5c0.8-1.14,2.37-1.41,3.5-0.62
			C33.61,44.52,33.88,46.09,33.09,47.22z"/>
		<path class="st2" d="M17.36,35.58c-1.18,0.74-2.73,0.38-3.46-0.8c-0.74-1.18-0.38-2.73,0.8-3.47c1.18-0.74,2.73-0.38,3.47,0.8
			C18.9,33.29,18.54,34.84,17.36,35.58z"/>
		<path class="st2" d="M25.61,29.54c-1.18,0.74-2.73,0.38-3.46-0.8c-0.74-1.18-0.38-2.73,0.8-3.47c1.18-0.73,2.73-0.38,3.47,0.8
			C27.15,27.25,26.79,28.81,25.61,29.54z"/>
		<path class="st2" d="M100.54,64.17v-7.76l1.92-2.42V28.12c0-3.57,3.51-3.21,3.51-3.21h11.51c0,0,3.74-0.31,3.74,3.21V54l1.97,2.32
			l-0.05,7.8L100.54,64.17z"/>
		<path class="st2" d="M110.3,46.6c0-0.86,0.7-1.56,1.56-1.56c0.86,0,1.56,0.7,1.56,1.56c0,0.86-0.7,1.56-1.56,1.56
			C111,48.15,110.3,47.46,110.3,46.6z"/>
		<path class="st2" d="M108.55,52.77c0-1.83,1.48-3.31,3.31-3.31c1.83,0,3.31,1.48,3.31,3.31s-1.48,3.31-3.31,3.31
			C110.03,56.08,108.55,54.6,108.55,52.77z"/>
		<path class="st2" d="M110.3,39.71c0,0.86,0.7,1.56,1.56,1.56c0.86,0,1.56-0.7,1.56-1.56c0-0.86-0.7-1.56-1.56-1.56
			C111,38.15,110.3,38.85,110.3,39.71z"/>
		<path class="st2" d="M108.55,33.53c0,1.83,1.48,3.31,3.31,3.31c1.83,0,3.31-1.48,3.31-3.31c0-1.83-1.48-3.31-3.31-3.31
			C110.03,30.22,108.55,31.7,108.55,33.53z"/>
	</g>
</g>
<g id="Endless_Casting_u_Rolling_x5F_Mouseover" class="st0">
	<g class="st1">
		<path class="st3" d="M132.75,43.04H44.3c-4.77,0-29.96-1.64-28.61-32.21"/>
		<path class="st4" d="M54.77,38.11c0,1.39-1.13,2.52-2.51,2.52c-1.39,0-2.52-1.13-2.52-2.52c0-1.39,1.13-2.52,2.52-2.52
			C53.65,35.59,54.77,36.72,54.77,38.11z"/>
		<path class="st4" d="M54.6,49.02c0,1.39-1.13,2.52-2.51,2.52c-1.39,0-2.52-1.13-2.52-2.52c0-1.39,1.13-2.51,2.52-2.51
			C53.48,46.51,54.6,47.63,54.6,49.02z"/>
		<path class="st4" d="M71.95,49.02c0,1.39-1.13,2.52-2.51,2.52c-1.39,0-2.52-1.13-2.52-2.52c0-1.39,1.13-2.51,2.52-2.51
			C70.83,46.51,71.95,47.63,71.95,49.02z"/>
		<path class="st4" d="M89.47,49.02c0,1.39-1.13,2.52-2.52,2.52c-1.39,0-2.52-1.13-2.52-2.52c0-1.39,1.13-2.51,2.52-2.51
			C88.34,46.51,89.47,47.63,89.47,49.02z"/>
		<path class="st4" d="M9.77,12.47c1.39,0,2.52,1.13,2.52,2.52c0,1.39-1.13,2.52-2.52,2.52s-2.52-1.13-2.52-2.52
			C7.25,13.6,8.38,12.47,9.77,12.47z"/>
		<path class="st4" d="M21.26,12.47c1.39,0,2.52,1.13,2.52,2.52c0,1.39-1.13,2.52-2.52,2.52c-1.39,0-2.51-1.13-2.51-2.52
			C18.75,13.6,19.88,12.47,21.26,12.47z"/>
		<path class="st4" d="M37.51,37.65c-0.8,1.14-2.37,1.41-3.5,0.62c-1.14-0.8-1.42-2.37-0.62-3.5c0.79-1.14,2.37-1.41,3.5-0.62
			C38.03,34.95,38.31,36.52,37.51,37.65z"/>
		<path class="st4" d="M33.09,47.22c-0.8,1.14-2.37,1.41-3.5,0.62c-1.14-0.8-1.42-2.37-0.62-3.5c0.8-1.14,2.37-1.41,3.5-0.62
			C33.61,44.52,33.88,46.09,33.09,47.22z"/>
		<path class="st4" d="M17.36,35.58c-1.18,0.74-2.73,0.38-3.46-0.8c-0.74-1.18-0.38-2.73,0.8-3.47c1.18-0.74,2.73-0.38,3.47,0.8
			C18.9,33.29,18.54,34.84,17.36,35.58z"/>
		<path class="st4" d="M25.61,29.54c-1.18,0.74-2.73,0.38-3.46-0.8c-0.74-1.18-0.38-2.73,0.8-3.47c1.18-0.73,2.73-0.38,3.47,0.8
			C27.15,27.25,26.79,28.81,25.61,29.54z"/>
		<path class="st4" d="M100.54,64.17v-7.76l1.92-2.42V28.12c0-3.57,3.51-3.21,3.51-3.21h11.51c0,0,3.74-0.31,3.74,3.21V54l1.97,2.32
			l-0.05,7.8L100.54,64.17z"/>
		<path class="st4" d="M110.3,46.6c0-0.86,0.7-1.56,1.56-1.56c0.86,0,1.56,0.7,1.56,1.56c0,0.86-0.7,1.56-1.56,1.56
			C111,48.15,110.3,47.46,110.3,46.6z"/>
		<path class="st4" d="M108.55,52.77c0-1.83,1.48-3.31,3.31-3.31c1.83,0,3.31,1.48,3.31,3.31s-1.48,3.31-3.31,3.31
			C110.03,56.08,108.55,54.6,108.55,52.77z"/>
		<path class="st4" d="M110.3,39.71c0,0.86,0.7,1.56,1.56,1.56c0.86,0,1.56-0.7,1.56-1.56c0-0.86-0.7-1.56-1.56-1.56
			C111,38.15,110.3,38.85,110.3,39.71z"/>
		<path class="st4" d="M108.55,33.53c0,1.83,1.48,3.31,3.31,3.31c1.83,0,3.31-1.48,3.31-3.31c0-1.83-1.48-3.31-3.31-3.31
			C110.03,30.22,108.55,31.7,108.55,33.53z"/>
	</g>
</g>
<g id="Mini_Mills" class="st0">
	<g class="st1">
		<g>
			<path class="st2" d="M36.27,51.98h-3.59v5.07h6.25l0.95,2.22c0,0,10.61,10.67,28.87,10.73c0,0,13.21-0.1,20.33-7.03h18.26V40.7
				H93.99V26.99c0,0-0.54-1.63-4.07-2.6l-16.55-4.46H56.11L41.2,23.57c0,0-4.93,1.45-4.93,3.41V51.98z"/>
		</g>
		<rect x="63.4" y="5" class="st2" width="3.09" height="36.49"/>
		<g>
			<path class="st2" d="M41.29,30.21c0,0,0.4-1.13,1.99-1.56l14.8-3.03h13.5l14.37,3.03c0,0,2.43,0.61,2.38,1.56v14.74h14.4v12.94
				H86.2c0,0-4.67,6.14-17.44,6.19c0,0-16.7,0.25-27.47-8.47V30.21z"/>
		</g>
	</g>
</g>
<g id="Mini_Mills_x5F_Mouseover" class="st0">
	<g class="st1">
		<g>
			<path class="st4" d="M36.27,51.98h-3.59v5.07h6.25l0.95,2.22c0,0,10.61,10.67,28.87,10.73c0,0,13.21-0.1,20.33-7.03h18.26V40.7
				H93.99V26.99c0,0-0.54-1.63-4.07-2.6l-16.55-4.46H56.11L41.2,23.57c0,0-4.93,1.45-4.93,3.41V51.98z"/>
		</g>
		<rect x="63.4" y="5" class="st3" width="3.09" height="36.49"/>
		<g>
			<path class="st3" d="M41.29,30.21c0,0,0.4-1.13,1.99-1.56l14.8-3.03h13.5l14.37,3.03c0,0,2.43,0.61,2.38,1.56v14.74h14.4v12.94
				H86.2c0,0-4.67,6.14-17.44,6.19c0,0-16.7,0.25-27.47-8.47V30.21z"/>
		</g>
	</g>
</g>
</svg>
